<svg xmlns="http://www.w3.org/2000/svg" width="96.95mm" height="58.41mm" viewBox="0 0 274.82 165.56"><defs><style>.cls-1{fill:#4287c7;}</style></defs><g id="Ebene_2" data-name="Ebene 2"><g id="katman_1" data-name="katman 1"><path class="cls-1" d="M198.86,26.88,153.43,72.31l-.64-.63L87.45,6.34A21.69,21.69,0,0,0,56.78,37L77.32,57.55,5.92,129a20.25,20.25,0,0,0,0,28.61L8,159.63a20.23,20.23,0,0,0,28.62,0L108,88.23l30,30a23.41,23.41,0,0,0,2.17,1.9l12.67,12.67.77.77,45.3-45.29,45.29,45.29,30.67-30.67Zm0,56.2-45.3,45.29-.77-.77-10.18-10.18-.19-.17a17.8,17.8,0,0,1-1.89-1.64L108,83.08l-74,74a16.59,16.59,0,0,1-23.46,0L8.49,155a16.6,16.6,0,0,1,0-23.46l74-74L59.36,34.44A18,18,0,0,1,84.88,8.92l67.91,67.91.64.63L198.86,32l70.81,70.82-25.52,25.52Z"/><path class="cls-1" d="M215.84,56.8,198.05,39,164.13,73.42l-11,11-.37-.36L81,12.17A12.59,12.59,0,0,0,63.23,30L90.05,56.79,12.22,134.33a11.67,11.67,0,0,0,0,16.49l1.31,1.3a11.65,11.65,0,0,0,16.49,0l77.83-77.54,19.79,19.79A12.84,12.84,0,0,0,129,95.52l23.84,23.93.45.45,44.81-45.31,46.14,46L262,102.81Z"/></g></g></svg>